<svg width="56" height="56" viewBox="0 0 56 56" fill="none" xmlns="http://www.w3.org/2000/svg">
<path d="M35.1198 45.9989C36.2193 45.9488 38.2964 44.8998 38.2964 41.2879V38.9645C38.7068 38.8166 39.1588 38.5731 39.58 38.1789C40.5268 37.2931 41.0067 35.9614 41.0067 34.2189V31.4142C41.8047 30.7942 42.5811 29.5887 42.5811 27.4997V25.6235H51.2804C53.012 25.6235 54.0665 24.9244 54.6456 24.339C55.988 22.9799 56.0011 21.1043 56 20.9137C56 19.3151 55.5075 18.0357 54.5368 17.1089C53.0844 15.7231 51.1333 15.7123 50.7765 15.7231L30.9058 15.7231C31.5089 14.4551 31.3795 13.1648 31.2997 12.7052C31.2239 10.177 29.0288 9.10581 27.5446 9.00228L27.499 9H16.677C16.506 9.00228 12.4305 9.10012 8.3288 11.5657C4.5292 13.8492 -3.8147e-06 18.6495 -3.8147e-06 28.5476L0.00056839 32.4934C0.00227737 32.6311 0.0712509 35.9301 2.01608 39.2444C3.82468 42.3255 7.62827 46 15.476 46H35.0611L35.1198 45.9989ZM34.9557 43.382H27.1723C26.6314 42.8284 26.3527 42.2544 26.3293 41.6389C26.298 40.6655 26.8765 39.7655 27.255 39.2808H35.6739V41.2873C35.6733 42.771 35.2213 43.2966 34.9557 43.382ZM37.8091 36.2464C37.5087 36.5439 37.1382 36.5741 37.0544 36.5763L36.7625 36.7288C36.6383 36.6901 36.5095 36.6634 36.3721 36.6634H26.673C26.6719 36.6634 26.6702 36.6634 26.6685 36.6634H26.6531C25.9833 36.6634 25.4196 35.0824 25.2691 34.1324C25.3033 32.8848 26.0574 31.9979 26.6343 31.4979C27.2179 31.8267 27.927 32.0377 28.7906 32.0377H38.3836V34.2189C38.3836 35.1746 38.1853 35.8755 37.8091 36.2464ZM39.958 27.4997C39.958 28.7086 39.5932 29.232 39.3674 29.3657L38.3836 29.4169V29.4197H28.7911C27.381 29.4197 27.0281 28.0993 26.9529 27.6892C27.0059 25.8101 28.6247 25.6326 29.1155 25.6235H39.958V27.4997ZM2.62312 32.4747V28.5476C2.62312 12.1175 16.1492 11.6305 16.6998 11.618H27.3918C27.8096 11.6635 28.6788 11.8752 28.6788 12.8394V12.9862L28.7113 13.129C28.7142 13.1398 28.9228 14.2036 28.3494 14.9199C27.7925 15.6168 26.6274 15.7624 25.7496 15.7624L17.5759 15.7652L17.7594 17.2352C17.813 17.6608 18.9564 27.6812 10.0861 29.8947C9.38387 30.0705 8.95694 30.7805 9.1325 31.4825C9.30749 32.1834 10.02 32.6089 10.7222 32.4337C15.3534 31.2783 18.4919 28.196 19.7989 23.5209C20.3609 21.5093 20.4595 19.6217 20.4475 18.381H25.7496C26.0517 18.381 26.3396 18.3651 26.6189 18.34H50.7993L50.8466 18.3395C50.8586 18.3395 52.018 18.3156 52.735 19.0125C53.1671 19.4317 53.3768 20.053 53.3768 20.9194C53.3734 21.5469 53.1614 23.0055 51.2798 23.0055H29.1155C28.9946 23.0055 27.9054 23.0214 26.7916 23.5778C25.203 24.3708 24.3292 25.8642 24.3292 27.7842V27.8672L24.34 27.9503C24.3987 28.4071 24.5618 28.9948 24.8576 29.583C23.8789 30.4517 22.6454 31.9894 22.6454 34.2194V34.3059L22.6574 34.3912C22.8227 35.6388 23.4007 37.4815 24.6034 38.5123C24.1365 39.3002 23.705 40.3498 23.705 41.5501C23.705 41.6036 23.7056 41.6577 23.7073 41.7123C23.7261 42.2931 23.8475 42.8512 24.0647 43.3825H15.4771C2.98964 43.382 2.63168 32.8979 2.62312 32.4747Z" fill="#C45308"/>
</svg>
