<svg width="56" height="56" viewBox="0 0 56 56" fill="none" xmlns="http://www.w3.org/2000/svg">
<g clip-path="url(#clip0)">
<path fill-rule="evenodd" clip-rule="evenodd" d="M29.1824 3.79871V1.31457C29.1824 0.588859 28.5935 0 27.8678 0C27.1421 0 26.5532 0.588859 26.5532 1.31457V3.79871C26.5532 4.52442 27.1421 5.11328 27.8678 5.11328C28.5935 5.11328 29.1824 4.52442 29.1824 3.79871ZM35.3596 48.1596C35.29 48.8835 34.6352 49.4127 33.9252 49.3417C33.202 49.272 32.6734 48.6298 32.7418 47.9085C33.1781 43.3929 35.3716 41.3953 38.4088 38.6305L39.0686 38.0492C42.3914 35.0057 44.3106 30.6458 44.3106 26.1094C44.3106 17.161 37.0264 9.87813 28.0705 9.87436C19.1221 9.87813 11.8398 17.161 11.8398 26.1094C11.8398 30.642 13.7577 35.0026 17.1025 38.08C17.2532 38.2024 17.4522 38.3731 17.6493 38.5483L17.729 38.6217L17.7291 38.6218C20.5811 41.2252 22.691 43.1512 23.3006 47.098L34.2403 51.4065C34.9152 51.6727 35.2473 52.4354 34.9811 53.1109C34.7777 53.6282 34.2824 53.9434 33.7575 53.9434C33.5981 53.9434 33.4349 53.9139 33.2767 53.8523L21.6125 49.2582C21.153 49.0768 20.8328 48.6524 20.7863 48.1609C20.4481 44.6628 18.8544 43.2073 15.9625 40.5662L15.9581 40.5622L15.8896 40.5007C15.7251 40.3532 15.5487 40.2012 15.42 40.0983C15.4031 40.0848 15.3865 40.0702 15.3701 40.0556L15.3573 40.0443C11.4518 36.4684 9.21191 31.3891 9.21191 26.1082C9.21191 15.7102 17.6725 7.24835 28.0711 7.24396C38.4766 7.24835 46.9403 15.7102 46.9403 26.1082C46.9403 31.3803 44.7111 36.4465 40.8232 40.006L40.181 40.5723L40.1803 40.5729C37.2904 43.2035 35.698 44.6531 35.3596 48.1596ZM21.0211 52.1467C21.2873 51.4718 22.0501 51.1385 22.7256 51.4059L27.9443 53.4619C28.6198 53.7281 28.9513 54.4921 28.6851 55.1676C28.4817 55.6849 27.9864 56 27.4615 56C27.3021 56 27.1389 55.9711 26.9807 55.9084L21.7619 53.8511C21.0864 53.5849 20.755 52.8222 21.0211 52.1467ZM37.948 6.14219C37.7296 6.63186 37.2493 6.92315 36.7465 6.92315C36.5676 6.92315 36.3874 6.88611 36.2129 6.80952C35.5493 6.51446 35.2498 5.73853 35.5455 5.07433L36.5531 2.80427C36.8488 2.14134 37.626 1.84251 38.2883 2.13631C38.9519 2.432 39.2513 3.20794 38.9556 3.8715L37.948 6.14219ZM46.9455 8.32125C46.4602 7.78325 45.6284 7.7393 45.0891 8.22709L43.2459 9.89259C42.7067 10.3791 42.6646 11.2103 43.1518 11.7489C43.4104 12.0358 43.7683 12.1815 44.128 12.1815C44.4419 12.1815 44.757 12.0697 45.0081 11.8431L46.8513 10.1776C47.3906 9.69107 47.432 8.86052 46.9455 8.32125ZM48.3247 17.4216L50.6864 16.65C51.3782 16.4253 52.1184 16.8007 52.3437 17.4906C52.5691 18.1806 52.1931 18.9232 51.5025 19.1492L49.1408 19.9208C49.0065 19.9647 48.8677 19.9861 48.7327 19.9861C48.1797 19.9861 47.6649 19.6345 47.4835 19.0802C47.2581 18.3896 47.6341 17.6476 48.3247 17.4216ZM7.58033 17.9571L5.21046 17.2094C4.51739 16.9909 3.77912 17.3751 3.56128 18.0676C3.34281 18.7607 3.72701 19.4983 4.41945 19.7168L6.78933 20.4638C6.92054 20.5053 7.05425 20.5254 7.18546 20.5254C7.74356 20.5254 8.26085 20.1669 8.43851 19.6063C8.65698 18.9132 8.27215 18.1749 7.58033 17.9571ZM11.5861 12.6046C11.2772 12.6046 10.9665 12.4973 10.7166 12.2757L8.854 10.6296C8.31034 10.1487 8.25886 9.31755 8.73974 8.77452C9.22062 8.2296 10.0518 8.17875 10.5948 8.65963L12.4575 10.3057C13.0011 10.7866 13.0526 11.6177 12.5717 12.1608C12.3118 12.4552 11.9502 12.6046 11.5861 12.6046ZM18.8277 7.1561C19.0116 7.1561 19.1968 7.1178 19.3745 7.03682C20.0343 6.73486 20.3249 5.95452 20.023 5.29535L18.9884 3.03471C18.6858 2.37366 17.9054 2.08362 17.2463 2.38684C16.5865 2.68817 16.2958 3.46851 16.5978 4.12831L17.6324 6.38895C17.8527 6.87171 18.3298 7.1561 18.8277 7.1561ZM26.4251 38.6745C26.1896 38.6745 25.9505 38.6111 25.7345 38.4774C25.118 38.0957 24.9265 37.2865 25.3082 36.6681L30.441 28.3569H23.3219C22.836 28.3569 22.3897 28.0901 22.1618 27.6607C21.9333 27.2325 21.959 26.714 22.229 26.3103L29.1961 15.9149C29.5991 15.3116 30.4146 15.1496 31.0192 15.5546C31.6225 15.9588 31.7832 16.7756 31.3795 17.3783L25.7847 25.7278H32.797C33.2742 25.7278 33.713 25.9851 33.9446 26.4014C34.1775 26.8182 34.1662 27.3273 33.9151 27.7329L27.5444 38.0505C27.2958 38.4523 26.8651 38.6745 26.4251 38.6745Z" fill="#CB410B"/>
</g>
<defs>
<clipPath id="clip0">
<rect width="56" height="56" fill="white"/>
</clipPath>
</defs>
</svg>
