<svg width="56" height="56" viewBox="0 0 56 56" fill="none" xmlns="http://www.w3.org/2000/svg">
<path d="M34.9708 20.615H29.3404V14.0891H36.6896V17.568V17.718H36.8396H51H51.2594L51.13 17.4932L47.5057 11.1976L51.0373 4.19642L51.147 3.97886H50.9033H41.4817V0.5V0.35H41.3317H27.3197H27.1697V0.5V2.03583V13.9391V20.6156H12.3019C8.19483 20.6156 4.85 23.9078 4.85 27.9595V38.2925C4.85 40.2342 6.26569 41.8537 8.12992 42.2056V51.6666C8.12992 53.8654 9.94454 55.65 12.1709 55.65H17.1719C19.3983 55.65 21.2129 53.8654 21.2129 51.6666V28.9689H27.1697V38.6224V38.7724H27.3197H29.1904H29.3404V38.6224V28.9234C32.5879 28.5513 35.1208 25.8262 35.1208 22.5232V20.765V20.615H34.9708ZM45.0871 11.3343L47.5286 15.575H38.8603V6.12186H47.641L45.0832 11.1919L45.0467 11.2641L45.0871 11.3343ZM36.689 4.12886V11.9461H29.3404V2.493H39.311V3.97886H36.839H36.689V4.12886ZM12.3019 22.7586H32.9438C32.8196 25.0203 30.9127 26.8259 28.5812 26.8259H19.1922H19.0422V26.9759V51.6666C19.0422 52.6794 18.2049 53.507 17.1719 53.507H12.1709C11.1374 53.507 10.3006 52.6789 10.3006 51.6666V40.283V40.133H10.1506H8.89101C7.85747 40.133 7.02068 39.3048 7.02068 38.2925V27.9595C7.02068 25.0938 9.38765 22.7586 12.3019 22.7586Z" fill="#C45308" stroke="#C45308" stroke-width="0.3"/>
<path fill-rule="evenodd" clip-rule="evenodd" d="M15 19.5C18.866 19.5 22 16.366 22 12.5C22 8.63401 18.866 5.5 15 5.5C11.134 5.5 8 8.63401 8 12.5C8 16.366 11.134 19.5 15 19.5ZM15 17C17.4853 17 19.5 14.9853 19.5 12.5C19.5 10.0147 17.4853 8 15 8C12.5147 8 10.5 10.0147 10.5 12.5C10.5 14.9853 12.5147 17 15 17Z" fill="#C45308"/>
</svg>
