<svg width="56" height="56" viewBox="0 0 56 56" fill="none" xmlns="http://www.w3.org/2000/svg">
<g clip-path="url(#clip0)">
<path d="M14.7022 5.41696C18.6819 5.41696 21.9198 8.65479 21.9198 12.6345C21.9198 16.6148 18.6819 19.8527 14.7022 19.8521V5.41696ZM14.7022 5.41696C10.7225 5.41696 7.48464 8.65479 7.48464 12.6345M14.7022 5.41696L7.48464 12.6345M7.48464 12.6345C7.48464 16.6142 10.7225 19.8521 14.7022 19.8521L7.48464 12.6345ZM9.66053 12.6345C9.66053 9.85505 11.9221 7.59346 14.7016 7.59346C17.481 7.59346 19.7426 9.85505 19.7426 12.6345C19.7426 15.414 17.481 17.6756 14.7016 17.6756C11.9221 17.6756 9.66053 15.414 9.66053 12.6345Z" fill="#C45308" stroke="#C45308" stroke-width="0.3"/>
<path d="M35.0642 20.4835H29.4157V13.8335H36.7888V17.3783V17.5283H36.9388H51.1433H51.4009L51.2738 17.3043L47.6371 10.8922L51.1807 3.7616L51.2884 3.54484H51.0464H41.5949V0V-0.15H41.4449H27.3892H27.2392V0V1.56376V13.6835V20.4841H12.3246C8.20292 20.4841 4.85 23.837 4.85 27.9587V38.4797C4.85 40.4539 6.2686 42.1031 8.14014 42.4613V52.0969C8.14014 54.3321 9.95808 56.15 12.1933 56.15H17.2098C19.445 56.15 21.2629 54.3321 21.2629 52.0969V28.9838H27.2392V38.8156V38.9656H27.3892H29.2657H29.4157V38.8156V28.9375C32.6751 28.5589 35.2142 25.7836 35.2142 22.4236V20.6335V20.4835H35.0642ZM45.2119 11.0291L47.6638 15.3518H38.9653V5.72135H47.7763L45.2081 10.8883L45.1726 10.9597L45.2119 11.0291ZM36.7882 3.69484V11.657H29.4157V2.02651H39.4184V3.54484H36.9382H36.7882V3.69484ZM12.3246 22.6606H33.0315C32.9083 24.9681 30.9927 26.8073 28.6546 26.8073H19.2364H19.0864V26.9573V52.0969C19.0864 53.1318 18.2441 53.9735 17.2098 53.9735H12.1933C11.1584 53.9735 10.3167 53.1312 10.3167 52.0969V40.5063V40.3563H10.1667H8.90314C7.86824 40.3563 7.02651 39.514 7.02651 38.4797V27.9587C7.02651 25.0373 9.40319 22.6606 12.3246 22.6606Z" fill="#C45308" stroke="#C45308" stroke-width="0.3"/>
</g>
<defs>
<clipPath id="clip0">
<rect width="56" height="56" fill="white"/>
</clipPath>
</defs>
</svg>
