<svg width="56" height="56" viewBox="0 0 56 56" fill="none" xmlns="http://www.w3.org/2000/svg">
<path d="M12.8511 26.4553H4.80422V45.4143H12.8511V26.4553ZM15.5944 24.9313L26.3845 13.5925L28.5791 7.37445C28.9449 6.33811 29.5545 5.60657 30.408 5.11888C31.1395 4.69215 32.0539 4.44831 32.9683 4.50927C33.8218 4.57023 34.7362 4.87504 35.4678 5.36273C36.4431 6.0333 37.2356 7.00868 37.6014 8.41079C38.5768 11.8246 38.5768 14.9337 38.0281 17.616C37.6624 19.3838 37.0528 21.0298 36.2603 22.5538H49.6717C50.83 22.5538 51.9273 23.0415 52.7198 23.834C53.5123 24.6265 54 25.6628 54 26.8821V27.5526C54 28.7109 53.5123 29.8082 52.7808 30.5398C53.3904 31.3323 53.6952 32.3076 53.6952 33.344V34.0145C53.6952 35.2338 52.9637 36.2701 51.9273 37.0626L51.7444 37.1845C52.2931 37.9161 52.6589 38.8305 52.6589 39.8668V40.5374C52.6589 43.2197 51.1348 44.2561 49.3669 44.6218C49.6108 45.1705 49.7327 45.7191 49.7327 46.3287V46.9993C49.7327 48.2185 49.245 49.2549 48.4525 50.0474C47.66 50.8399 46.6237 51.3276 45.4045 51.3276H27.5428C27.2989 51.3276 27.1161 51.2666 26.9332 51.1447L15.5944 46.0239V46.6945C15.5944 47.426 14.9848 48.0966 14.2532 48.0966H3.40211C2.67057 48.0966 2 47.487 2 46.6945V25.0532C2 24.3217 2.60961 23.6511 3.40211 23.6511H14.2532C14.9238 23.6511 15.5334 24.1998 15.5944 24.9313ZM28.5791 15.2994L16.143 28.3451V43.2807L27.8476 48.5843H45.3435C45.7702 48.5843 46.136 48.4014 46.4408 48.1576C46.7456 47.8528 46.8675 47.487 46.8675 47.0603V46.3897C46.8675 45.963 46.6846 45.5972 46.4408 45.2924C46.136 44.9876 45.7702 44.8657 45.3435 44.8657H44.0633V42.1224C44.7339 42.1224 45.3435 42.1224 46.0141 42.1224C46.197 42.1224 46.4408 42.1224 46.8675 42.1224C48.1477 42.1224 49.7937 41.9395 49.7937 40.5374V39.8668C49.7937 39.4401 49.6108 39.0743 49.3669 38.7695C49.0621 38.4647 48.6964 38.3428 48.2696 38.3428H46.9285V35.5995H48.2696C48.8793 35.5995 49.6108 35.3557 50.1594 34.929C50.5252 34.6242 50.7691 34.3194 50.7691 34.0755V33.4659C50.7691 32.9782 50.6471 32.5515 50.3423 32.2467C50.1594 32.0028 49.8546 31.8809 49.4889 31.8809H48.2087V29.1376H49.4889C49.9156 29.1376 50.2814 28.9548 50.5862 28.7109C50.891 28.4061 51.0129 28.0403 51.0129 27.6136V26.943C51.0129 26.5163 50.83 26.1505 50.5862 25.8457C50.2814 25.5409 49.9156 25.419 49.4889 25.419H33.6389C33.3951 25.419 33.0903 25.358 32.9074 25.1752C32.2978 24.7484 32.1149 23.895 32.5416 23.2854C33.6999 21.5175 34.6753 19.5058 35.2239 17.1892C35.7116 14.8727 35.7116 12.2514 34.8582 9.26425C34.6753 8.53272 34.2485 8.04503 33.7608 7.67926C33.3951 7.43541 33.0293 7.31349 32.6635 7.31349C32.2978 7.25253 31.993 7.37445 31.6882 7.49637C31.3834 7.67926 31.2005 7.9231 31.0785 8.28887L28.823 14.6898C28.823 14.9337 28.7011 15.1165 28.5791 15.2994Z" fill="#C45308"/>
</svg>
