<svg width="56" height="56" viewBox="0 0 56 56" fill="none" xmlns="http://www.w3.org/2000/svg">
<path fill-rule="evenodd" clip-rule="evenodd" d="M6.27677 5H49.7232C50.4295 5 51 5.57047 51 6.27677V35.4161C51 36.1224 50.4295 36.6929 49.7232 36.6929H6.27677C5.57047 36.6929 5 36.1224 5 35.4161V6.27677C5 5.57047 5.57047 5 6.27677 5ZM28 22.413L46.1465 7.55354H9.85354L28 22.413ZM7.55354 27.9819V34.1394H48.4465V8.9752L28.8059 25.0571C28.5705 25.2472 27.9004 25.6094 27.185 25.0571L7.55354 8.9752V20.3213H11.9272C12.6335 20.3213 13.2039 20.8917 13.2039 21.598C13.2039 22.3043 12.6335 22.8748 11.9272 22.8748H7.55354V25.4283H9.37362C10.0799 25.4283 10.6504 25.9988 10.6504 26.7051C10.6504 27.4114 10.0799 27.9819 9.37362 27.9819H7.55354ZM13.6929 43.6835C13.3488 43.0677 12.561 42.8504 11.9543 43.2036L10.7047 43.9008V42.4701C10.7047 41.7638 10.1342 41.1933 9.42793 41.1933C8.72163 41.1933 8.15116 41.7638 8.15116 42.4701V43.9008L6.91061 43.1945C6.29486 42.8504 5.51612 43.0587 5.17202 43.6744C4.82793 44.2902 5.0362 45.0689 5.65194 45.413L6.84722 46.0921L5.65194 46.7713C5.0362 47.1154 4.81887 47.9032 5.17202 48.5099C5.51612 49.1256 6.30391 49.3429 6.91061 48.9898L8.15116 48.2835V49.7142C8.15116 50.4205 8.72163 50.991 9.42793 50.991C10.1342 50.991 10.7047 50.4295 10.7047 49.7232V48.2925L11.9453 48.9988C12.561 49.3429 13.3397 49.1347 13.6838 48.5189C14.0279 47.9032 13.8197 47.1244 13.2039 46.7803L12.0086 46.1012L13.2039 45.4221C13.8197 45.078 14.037 44.2902 13.6929 43.6835ZM25.7454 43.6835C25.4013 43.0677 24.6135 42.8504 24.0068 43.2035L22.7662 43.9098V42.4791C22.7662 41.7728 22.1958 41.2024 21.4895 41.2024C20.7832 41.2024 20.2127 41.7728 20.2127 42.4791V43.9098L18.9721 43.2035C18.3564 42.8594 17.5776 43.0677 17.2335 43.6835C16.8895 44.2992 17.0977 45.078 17.7135 45.422L18.9087 46.1012L17.7135 46.7803C17.0977 47.1244 16.8804 47.9122 17.2335 48.5189C17.5776 49.1346 18.3654 49.352 18.9721 48.9988L20.2127 48.2925V49.7232C20.2127 50.4295 20.7832 51 21.4895 51C22.1958 51 22.7662 50.4295 22.7662 49.7232V48.2925L24.0068 48.9988C24.6225 49.3429 25.4013 49.1346 25.7454 48.5189C26.0895 47.9032 25.8812 47.1244 25.2654 46.7803L24.0702 46.1012L25.2654 45.422C25.8812 45.078 26.0985 44.2902 25.7454 43.6835ZM49.7232 46.6173H40.7858C40.0795 46.6173 39.509 47.1878 39.509 47.8941C39.509 48.6004 40.0795 49.1709 40.7858 49.1709H49.7232C50.4295 49.1709 51 48.6004 51 47.8941C51 47.1878 50.4295 46.6173 49.7232 46.6173ZM36.059 43.2036C36.6748 42.8504 37.4535 43.0677 37.8067 43.6835C38.1598 44.2902 37.9425 45.078 37.3358 45.4221L36.1405 46.1012L37.3358 46.7803C37.9515 47.1244 38.1598 47.9032 37.8157 48.5189C37.8157 48.5234 37.8134 48.5257 37.8112 48.528C37.8089 48.5302 37.8067 48.5325 37.8067 48.537C37.7614 48.6185 37.698 48.7 37.6346 48.7634C37.6165 48.7875 37.5984 48.8036 37.5803 48.8197C37.5712 48.8278 37.5622 48.8358 37.5531 48.8449C37.5078 48.8811 37.4626 48.9173 37.4082 48.9536C37.3901 48.9626 37.372 48.9739 37.3539 48.9852C37.3358 48.9966 37.3177 49.0079 37.2996 49.0169C37.2847 49.0233 37.2703 49.0297 37.2562 49.036C37.2102 49.0564 37.167 49.0755 37.1185 49.0894C37.046 49.1165 36.9826 49.1347 36.9102 49.1437L36.9101 49.1437C36.8649 49.1528 36.8196 49.1618 36.7744 49.1618C36.7608 49.1618 36.7495 49.1641 36.7382 49.1663C36.7268 49.1686 36.7155 49.1709 36.7019 49.1709C36.6838 49.1709 36.668 49.1686 36.6521 49.1663C36.6363 49.1641 36.6204 49.1618 36.6023 49.1618C36.5661 49.1618 36.5299 49.1618 36.4937 49.1528C36.487 49.1517 36.4801 49.1505 36.4732 49.1494C36.4239 49.1413 36.3693 49.1324 36.3216 49.1165C36.308 49.112 36.2945 49.1052 36.2809 49.0984C36.2673 49.0916 36.2537 49.0849 36.2401 49.0803C36.2163 49.0701 36.1937 49.0611 36.1719 49.0525C36.1358 49.0382 36.1019 49.0248 36.0681 49.0079L34.8275 48.3016V49.7232C34.8275 50.4295 34.257 51 33.5508 51C32.8445 51 32.274 50.4295 32.274 49.7232V48.3016L31.0334 49.0079C30.9791 49.035 30.9248 49.0532 30.8704 49.0713C30.8569 49.0758 30.841 49.0826 30.8252 49.0894C30.8093 49.0962 30.7935 49.103 30.7799 49.1075C30.7322 49.1234 30.6776 49.1323 30.6283 49.1404C30.6214 49.1415 30.6145 49.1426 30.6078 49.1437L30.6078 49.1437C30.5716 49.1528 30.5354 49.1618 30.4992 49.1618C30.4811 49.1618 30.4652 49.1641 30.4494 49.1663C30.4335 49.1686 30.4177 49.1709 30.3996 49.1709C30.386 49.1709 30.3747 49.1686 30.3633 49.1663C30.352 49.1641 30.3407 49.1618 30.3271 49.1618C30.2819 49.1618 30.2366 49.1528 30.1914 49.1437L30.1913 49.1437C30.1189 49.1347 30.0464 49.1165 29.974 49.0894C29.9196 49.0713 29.8563 49.0441 29.8019 49.0169C29.7838 49.0034 29.7657 48.992 29.7476 48.9807C29.7295 48.9694 29.7114 48.9581 29.6933 48.9445C29.639 48.9083 29.5937 48.8721 29.5485 48.8359L29.5484 48.8358L29.4669 48.7543L29.4591 48.7453C29.4066 48.6841 29.347 48.6147 29.3039 48.537C29.3004 48.5336 29.297 48.5314 29.294 48.5296C29.2893 48.5266 29.2858 48.5245 29.2858 48.5189C28.9326 47.9122 29.15 47.1244 29.7657 46.7803L30.961 46.1012L29.7657 45.4221C29.15 45.078 28.9417 44.2992 29.2858 43.6835C29.6299 43.0677 30.4086 42.8504 31.0244 43.2036L32.2649 43.9099V42.4882C32.2649 41.7819 32.8354 41.2114 33.5417 41.2114C34.248 41.2114 34.8185 41.7819 34.8185 42.4882V43.9099L36.059 43.2036Z" fill="#C45308"/>
</svg>
