<svg width="56" height="56" viewBox="0 0 56 56" fill="none" xmlns="http://www.w3.org/2000/svg">
<path fill-rule="evenodd" clip-rule="evenodd" d="M49.9179 21.5747L39.4842 11.1411C39.1895 10.8463 38.7768 10.6695 38.4232 10.6695H30.3474C29.3453 4.65684 24.0989 0 17.7916 0C10.7768 0 5 5.7179 5 12.7916C5 18.4505 8.71368 23.2842 13.8421 24.9347V54.4674C13.8421 55.2926 14.5495 56 15.3747 56H48.7979C49.6232 56 50.3305 55.2926 50.3305 54.4674V22.6358C50.3895 22.2232 50.2126 21.8695 49.9179 21.5747ZM38.6589 14.6189L46.44 22.4H38.6589V14.6189ZM8.06526 12.7916C8.06526 7.42737 12.4274 3.12421 17.7326 3.12421C23.0379 3.12421 27.4 7.48632 27.4 12.7916C27.4 18.0968 23.0379 22.4589 17.7326 22.4589C12.4274 22.4589 8.06526 18.0968 8.06526 12.7916ZM16.9663 52.9347V25.4653C17.1137 25.4653 17.2463 25.48 17.3789 25.4947L17.379 25.4947C17.5116 25.5095 17.6442 25.5242 17.7916 25.5242C24.5116 25.5242 29.9937 20.3368 30.5242 13.7347H35.5937V23.9326C35.5937 24.7579 36.3011 25.4653 37.1263 25.4653H47.3242V52.9347H16.9663ZM41.5474 30.0632H22.6842C21.859 30.0632 21.1516 30.7705 21.1516 31.5958C21.1516 32.4211 21.859 33.1284 22.6842 33.1284H41.4885C42.3137 33.1284 43.0211 32.4211 43.0211 31.5958C43.0211 30.7705 42.3727 30.0632 41.5474 30.0632ZM41.5474 37.6674H22.6842C21.859 37.6674 21.1516 38.3747 21.1516 39.2C21.1516 40.0253 21.859 40.7326 22.6842 40.7326H41.4885C42.3137 40.7326 43.0211 40.0253 43.0211 39.2C43.08 38.3747 42.3727 37.6674 41.5474 37.6674ZM22.6842 45.2716H41.5474C42.3727 45.2716 43.08 45.9789 43.0211 46.8042C43.0211 47.6295 42.3137 48.3368 41.4885 48.3368H22.6842C21.859 48.3368 21.1516 47.6295 21.1516 46.8042C21.1516 45.9789 21.859 45.2716 22.6842 45.2716ZM20.9157 8.90106C21.5052 8.31159 22.5073 8.31159 23.0968 8.90106C23.7452 9.49053 23.7452 10.4337 23.0378 11.1411L17.4378 16.7411C17.2021 17.0358 16.7894 17.2126 16.3768 17.2126C16.0231 17.2126 15.6105 17.0358 15.3157 16.7411L12.3684 13.7937C11.7789 13.2042 11.7789 12.2021 12.3684 11.6126C12.9578 11.0232 13.96 11.0232 14.5494 11.6126L16.3768 13.44L20.9157 8.90106Z" fill="#C45308"/>
</svg>
