<svg width="56" height="56" viewBox="0 0 56 56" fill="none" xmlns="http://www.w3.org/2000/svg">
<path d="M16.2729 15.3035C16.6821 15.4519 17.1178 15.5128 17.552 15.4823C17.9862 15.4518 18.4091 15.3306 18.7935 15.1265L21.0395 13.9059C21.1173 13.8637 21.2028 13.8377 21.2908 13.8293C21.3789 13.8209 21.4678 13.8304 21.5521 13.857L34.6007 17.8607C34.6887 17.8879 34.7703 17.933 34.8401 17.9932C34.91 18.0533 34.9668 18.1272 35.0069 18.2102C35.0469 18.2932 35.0695 18.3836 35.0731 18.4757C35.0767 18.5679 35.0613 18.6597 35.0279 18.7457L34.8936 19.0874C34.8335 19.2386 34.7205 19.3627 34.5757 19.4368C34.4308 19.5109 34.2641 19.5299 34.1063 19.4902L27.5759 17.8302C26.9352 17.665 26.2584 17.7092 25.6445 17.9563C25.0307 18.2034 24.512 18.6404 24.1643 19.2034L22.4737 21.9254C22.4176 22.0143 22.3415 22.0887 22.2514 22.1428C22.1613 22.1968 22.0597 22.229 21.9549 22.2367L14.8692 22.7432C14.7089 22.7488 14.5513 22.786 14.4053 22.8525C14.2594 22.919 14.128 23.0136 14.0186 23.1309C13.9092 23.2483 13.824 23.386 13.7679 23.5362C13.7117 23.6864 13.6857 23.8463 13.6913 24.0066C13.6969 24.1669 13.734 24.3245 13.8006 24.4704C13.8671 24.6164 13.9617 24.7478 14.079 24.8572C14.1963 24.9665 14.334 25.0518 14.4843 25.1079C14.6345 25.1641 14.7943 25.1901 14.9546 25.1845H15.0401L22.1258 24.6779C22.6192 24.6457 23.0979 24.4967 23.5224 24.243C23.9469 23.9894 24.3049 23.6385 24.5671 23.2193L26.2577 20.4973C26.3332 20.3774 26.4447 20.2845 26.5763 20.2319C26.7078 20.1793 26.8527 20.1696 26.99 20.2043L33.496 21.8827C34.2298 22.0678 35.0059 21.9799 35.6796 21.6351C36.3534 21.2904 36.8787 20.7125 37.1579 20.009L37.2921 19.6672C37.4543 19.2677 37.5316 18.8388 37.5192 18.4077C37.5068 17.9767 37.405 17.5529 37.2203 17.1633C37.0355 16.7737 36.7718 16.4267 36.4459 16.1444C36.12 15.8621 35.7389 15.6505 35.3269 15.5232L22.2662 11.5501C21.8752 11.4288 21.464 11.3863 21.0565 11.4251C20.649 11.4638 20.2532 11.5831 19.8921 11.7759L17.6461 12.9965C17.5632 13.0402 17.472 13.066 17.3784 13.0723C17.2849 13.0786 17.191 13.0653 17.1029 13.0331L16.1509 12.6852C16.123 12.4575 16.0315 12.2422 15.8868 12.0641C15.7422 11.886 15.5502 11.7522 15.333 11.6782L7.58815 9.06607C7.43513 9.01357 7.2732 8.99201 7.11177 9.00264C6.95035 9.01327 6.79264 9.05589 6.64783 9.12801C6.50302 9.20013 6.37399 9.30032 6.26824 9.42275C6.16249 9.54518 6.08214 9.68741 6.03185 9.84117L0.0629734 27.7295C-0.0395681 28.0362 -0.016179 28.3711 0.128004 28.6606C0.272187 28.9501 0.525376 29.1706 0.831969 29.2736L8.57686 31.8613C8.70093 31.9021 8.83075 31.9227 8.96136 31.9223C9.218 31.9226 9.4682 31.8419 9.67637 31.6918C9.88454 31.5417 10.0401 31.3298 10.121 31.0862L15.4917 15.0044L16.2729 15.3035ZM8.19846 29.1698L2.76667 27.3389L7.97265 11.7515L13.4044 13.5824L8.19846 29.1698ZM55.8762 26.6553L47.4417 9.76793C47.2975 9.47831 47.0442 9.25776 46.7375 9.15477C46.4308 9.05177 46.0958 9.07475 45.806 9.21865L38.4823 12.8805C38.1926 13.0247 37.9721 13.278 37.8691 13.5847C37.7661 13.8914 37.7891 14.2264 37.933 14.5162L45.7938 30.2623C43.5521 32.7552 40.9072 34.8534 37.9696 36.4692L24.6831 43.3413C24.5183 43.4268 24.3596 43.5183 24.1948 43.616C23.9513 43.7806 23.6836 43.9062 23.4014 43.9883C23.0783 44.0331 22.7498 44.0207 22.431 43.9516C22.2069 43.9308 21.9917 43.8532 21.8059 43.7261C21.6201 43.599 21.4697 43.4267 21.369 43.2254L21.2897 42.9141C22.2496 42.4949 23.1813 42.0138 24.0788 41.4738C24.4511 41.2602 24.8173 41.0526 25.1713 40.8634L29.3092 38.6419C29.4585 38.5709 29.5917 38.4703 29.7009 38.3462C29.8101 38.2221 29.8929 38.0772 29.9444 37.9201C29.9959 37.7631 30.015 37.5972 30.0005 37.4326C29.9859 37.268 29.9381 37.108 29.86 36.9624C29.7818 36.8168 29.6748 36.6886 29.5456 36.5855C29.4164 36.4825 29.2676 36.4067 29.1083 36.3629C28.9489 36.319 28.7823 36.308 28.6186 36.3305C28.4549 36.353 28.2974 36.4085 28.1557 36.4936L24.03 38.7151C23.6516 38.9165 23.2671 39.1363 22.8765 39.3621C21.1676 40.3447 19.3977 41.3517 17.64 41.132C17.4631 41.1269 17.2918 41.0682 17.149 40.9636C17.0062 40.8589 16.8986 40.7133 16.8405 40.5461C16.7871 40.2728 16.7707 39.9937 16.7917 39.7161C16.7917 39.6794 16.7917 39.6428 16.7917 39.6062L27.4173 34.7237C27.5631 34.6572 27.6945 34.5626 27.8038 34.4453C27.9131 34.328 27.9982 34.1903 28.0543 34.0402C28.1104 33.89 28.1364 33.7302 28.1308 33.57C28.1251 33.4098 28.088 33.2522 28.0215 33.1064C27.9549 32.9605 27.8603 32.8291 27.7431 32.7198C27.6258 32.6105 27.4881 32.5254 27.3379 32.4693C27.1878 32.4132 27.028 32.3872 26.8678 32.3928C26.7076 32.3985 26.55 32.4356 26.4041 32.5021L15.4795 37.525C15.3682 37.5759 15.2452 37.5954 15.1236 37.5814C15.0021 37.5674 14.8867 37.5205 14.7899 37.4457L14.1795 36.988C14.078 36.9029 14.0037 36.7899 13.9657 36.6629C13.9277 36.536 13.9278 36.4008 13.9659 36.2739C13.9995 36.1589 14.0159 36.0397 14.0148 35.9199C14.2661 35.8632 14.5098 35.7772 14.741 35.6636L24.1765 31.5623C24.4735 31.4328 24.7069 31.1906 24.8254 30.889C24.9439 30.5874 24.9377 30.2511 24.8082 29.9541C24.6787 29.6571 24.4365 29.4236 24.1349 29.3052C23.8333 29.1867 23.497 29.1929 23.2 29.3224L13.7645 33.4542C13.5858 33.5302 13.3853 33.5374 13.2015 33.4744C13.0178 33.4115 12.8638 33.2829 12.7692 33.1133C12.6745 32.9437 12.6459 32.7451 12.6888 32.5557C12.7317 32.3663 12.8432 32.1994 13.0016 32.0871L20.0691 28.8952C20.3645 28.7625 20.5951 28.5178 20.7101 28.2151C20.8251 27.9123 20.8152 27.5763 20.6824 27.2809C20.5497 26.9855 20.3051 26.7549 20.0023 26.6399C19.6996 26.5249 19.3636 26.5348 19.0682 26.6675L11.9214 29.8961L11.7993 29.9632C11.3263 30.2437 10.9326 30.6401 10.6553 31.115C10.3781 31.5899 10.2265 32.1276 10.2149 32.6774C10.2033 33.2272 10.3321 33.7709 10.589 34.2571C10.8459 34.7433 11.2226 35.1559 11.6834 35.4561C11.6834 35.4927 11.6467 35.5293 11.6345 35.5659C11.451 36.1711 11.4555 36.8177 11.6473 37.4203C11.839 38.0229 12.2092 38.5532 12.7087 38.941L13.319 39.3987C13.6328 39.6367 13.9891 39.8128 14.3687 39.9175C14.3524 40.3553 14.3997 40.7932 14.5091 41.2174C14.6898 41.8503 15.0585 42.4133 15.5664 42.8318C16.0743 43.2504 16.6975 43.5047 17.3532 43.561C17.6304 43.5972 17.9097 43.6156 18.1893 43.616C18.4504 43.6147 18.7113 43.5984 18.9705 43.5671L19.0132 43.7502C19.294 45.0441 20.3925 46.0145 21.9549 46.3502C22.3201 46.4278 22.6924 46.4667 23.0657 46.4661C23.2886 46.4606 23.5108 46.4402 23.731 46.4051C24.3301 46.2906 24.9006 46.0583 25.4093 45.7216L25.7877 45.5079L39.0743 38.648C42.2209 36.9413 45.0578 34.7172 47.4661 32.0688C47.6546 32.0686 47.8405 32.0248 48.0093 31.9407L55.333 28.2788C55.6184 28.1335 55.8353 27.8819 55.9369 27.5782C56.0385 27.2745 56.0167 26.9431 55.8762 26.6553ZM48.0215 29.2125L40.6977 14.5101L45.8182 11.9529L53.142 26.6553L48.0215 29.2125Z" fill="#C45308"/>
</svg>
